# xmcd
#
# Track frame offsets:
#	150
#	11634
#	25810
#	34786
#	48455
#	61151
#	74009
#	85718
#	99380
#	117083
#	131471
#	143129
#	164030
#	178442
#	194996
#	206190
#	215961
#	228868
#	239182
#	252175
#
# Disc length: 3488 seconds
#
# Revision: 1
# Processed by: cddbd v1.5.2PL0 Copyright (c) Steve Scherf et al.
# Submitted via: audiograbber 1.83.01
#
DISCID=380d9e14
DTITLE=Various Artist - Country Greats - The Ultimate Collection CD3
DYEAR=2017
DGENRE=Country
TTITLE0=Jimmy Dale and The Flatlanders - Waiting For A Train
TTITLE1=Jerry Lee Lewis - Cold, Cold Heart
TTITLE2=Scott Walker - The Lady Came From Baltimore
TTITLE3=Patty Page - Tennessee Waltz
TTITLE4=Hank Williams - I'm So Lonesome I Could Cry
TTITLE5=Conway Twitty - I Can't Stop Loving You
TTITLE6=Freddy Fender - Before The Next Teardrop Falls
TTITLE7=Kenny Rogers - I Will Always Love You
TTITLE8=Robbie Fulks - Alabama At Night
TTITLE9=Freakwater - The Asp and The Albatross
TTITLE10=Crystal Gayle - Don't It Make My Brown Eyes Blue
TTITLE11=Bobby Bare Jr - I'll Be Around
TTITLE12=Warren Smith - Black Jack David
TTITLE13=The Flying Burrito Brothers - Hot Burrito #1
TTITLE14=Roger Miller - King Of The Road
TTITLE15=Charlie Feathers - Runnin' Around
TTITLE16=Malcolm Yelnington - Drinkin' Wine Spo-Dee-O-Dee
TTITLE17=The Everly Borothers - Bird Dog
TTITLE18=Patsy Cline - I Fall To Pieces
TTITLE19=Roy Oribsion - Go! Go! Go! (Down The Line)
EXTD=
EXTT0=
EXTT1=
EXTT2=
EXTT3=
EXTT4=
EXTT5=
EXTT6=
EXTT7=
EXTT8=
EXTT9=
EXTT10=
EXTT11=
EXTT12=
EXTT13=
EXTT14=
EXTT15=
EXTT16=
EXTT17=
EXTT18=
EXTT19=
PLAYORDER=
